<svg xmlns="http://www.w3.org/2000/svg" viewBox="0 0 48 48" fill="none">
  <defs>
    <linearGradient id="bg2" x1="0" y1="0" x2="1" y2="1">
      <stop offset="0%" stop-color="#7c3aed"/>
      <stop offset="100%" stop-color="#a855f7"/>
    </linearGradient>
  </defs>
  <rect x="2" y="2" width="44" height="44" rx="10" fill="url(#bg2)"/>
  <circle cx="13" cy="14" r="2.5" fill="#c084fc" opacity="0.9"/>
  <circle cx="13" cy="24" r="2.5" fill="#c084fc" opacity="0.9"/>
  <circle cx="13" cy="34" r="2.5" fill="#c084fc" opacity="0.9"/>
  <circle cx="24" cy="11" r="3" fill="white" opacity="0.95"/>
  <circle cx="24" cy="20" r="3" fill="white" opacity="0.95"/>
  <circle cx="24" cy="28" r="3" fill="white" opacity="0.95"/>
  <circle cx="24" cy="37" r="3" fill="white" opacity="0.95"/>
  <circle cx="35" cy="14" r="2.5" fill="#c084fc" opacity="0.9"/>
  <circle cx="35" cy="24" r="2.5" fill="#c084fc" opacity="0.9"/>
  <circle cx="35" cy="34" r="2.5" fill="#c084fc" opacity="0.9"/>
  <line x1="15.5" y1="14" x2="21" y2="11" stroke="white" stroke-width="0.8" opacity="0.35"/>
  <line x1="15.5" y1="14" x2="21" y2="20" stroke="white" stroke-width="0.8" opacity="0.35"/>
  <line x1="15.5" y1="14" x2="21" y2="28" stroke="white" stroke-width="0.8" opacity="0.35"/>
  <line x1="15.5" y1="24" x2="21" y2="11" stroke="white" stroke-width="0.8" opacity="0.35"/>
  <line x1="15.5" y1="24" x2="21" y2="20" stroke="white" stroke-width="0.8" opacity="0.35"/>
  <line x1="15.5" y1="24" x2="21" y2="28" stroke="white" stroke-width="0.8" opacity="0.35"/>
  <line x1="15.5" y1="24" x2="21" y2="37" stroke="white" stroke-width="0.8" opacity="0.35"/>
  <line x1="15.5" y1="34" x2="21" y2="20" stroke="white" stroke-width="0.8" opacity="0.35"/>
  <line x1="15.5" y1="34" x2="21" y2="28" stroke="white" stroke-width="0.8" opacity="0.35"/>
  <line x1="15.5" y1="34" x2="21" y2="37" stroke="white" stroke-width="0.8" opacity="0.35"/>
  <line x1="27" y1="11" x2="32.5" y2="14" stroke="white" stroke-width="0.8" opacity="0.35"/>
  <line x1="27" y1="11" x2="32.5" y2="24" stroke="white" stroke-width="0.8" opacity="0.35"/>
  <line x1="27" y1="20" x2="32.5" y2="14" stroke="white" stroke-width="0.8" opacity="0.35"/>
  <line x1="27" y1="20" x2="32.5" y2="24" stroke="white" stroke-width="0.8" opacity="0.35"/>
  <line x1="27" y1="20" x2="32.5" y2="34" stroke="white" stroke-width="0.8" opacity="0.35"/>
  <line x1="27" y1="28" x2="32.5" y2="14" stroke="white" stroke-width="0.8" opacity="0.35"/>
  <line x1="27" y1="28" x2="32.5" y2="24" stroke="white" stroke-width="0.8" opacity="0.35"/>
  <line x1="27" y1="28" x2="32.5" y2="34" stroke="white" stroke-width="0.8" opacity="0.35"/>
  <line x1="27" y1="37" x2="32.5" y2="24" stroke="white" stroke-width="0.8" opacity="0.35"/>
  <line x1="27" y1="37" x2="32.5" y2="34" stroke="white" stroke-width="0.8" opacity="0.35"/>
</svg>